<?xml version="1.0" encoding="UTF-8"?><svg id="Warstwa_2" xmlns="http://www.w3.org/2000/svg" viewBox="0 0 466.31 84.84"><defs><style>.cls-1{fill:#229d95;}.cls-2{fill:#f1fdff;}</style></defs><g id="Warstwa_1-2"><g><path class="cls-2" d="M0,0H51.72V13.56H16.8v21.48h26.76v13.32H16.8v35.4H0V0Z"/><path class="cls-2" d="M92.64,84.84c-19.32,0-33.36-13.44-33.36-34.32s13.68-34.32,33.36-34.32,32.76,13.08,32.76,32.88c0,2.16-.12,4.32-.48,6.48h-48.6c.84,9.84,7.56,15.36,15.96,15.36,7.2,0,11.16-3.6,13.32-8.04h18.12c-3.6,12.24-14.64,21.96-31.08,21.96Zm-16.2-40.56h31.56c-.24-8.76-7.2-14.28-15.84-14.28-8.04,0-14.4,5.16-15.72,14.28Z"/><path class="cls-2" d="M163.08,84.84c-16.68,0-28.32-9.72-29.04-22.08h16.92c.6,5.04,5.28,8.88,12,8.88s10.2-3,10.2-6.84c0-11.88-37.56-4.32-37.56-28.68,0-11.04,9.84-19.92,26.28-19.92s25.8,8.76,26.76,21.96h-16.08c-.48-5.16-4.56-8.64-11.16-8.64-6.24,0-9.48,2.52-9.48,6.36,0,12.12,36.84,4.56,37.32,28.92,0,11.4-9.96,20.04-26.16,20.04Z"/><path class="cls-2" d="M205.68,31.08h-7.92v-13.8h7.92V.84h16.92V17.28h14.88v13.8h-14.88V63.24c0,4.44,1.8,6.36,7.08,6.36h7.8v14.16h-10.56c-12.72,0-21.24-5.4-21.24-20.64V31.08Z"/><path class="cls-1" d="M320.99,42.12c0,25.92-16.92,41.64-44.4,41.64h-26.04V.12h26.04c27.48,0,44.4,16.08,44.4,42Zm-44.4,32.64c21.84,0,33.24-12.24,33.24-32.64s-11.4-33.12-33.24-33.12h-15.12V74.76h15.12Z"/><path class="cls-1" d="M363.83,84.84c-18.72,0-32.52-13.2-32.52-34.08s13.32-33.84,32.52-33.84,31.56,13.44,31.56,31.44c0,2.4-.12,4.32-.36,6.6h-52.56c.84,13.32,10.2,20.64,21.36,20.64,9.84,0,16.08-5.04,18.48-12.12h11.76c-3.36,12-13.92,21.36-30.24,21.36Zm-21.24-38.76h41.52c.12-12.84-9.48-19.92-20.76-19.92-10.68,0-19.56,7.08-20.76,19.92Z"/><path class="cls-1" d="M413.75,18l20.52,55.68,20.4-55.68h11.64l-25.8,65.76h-12.72l-25.8-65.76h11.76Z"/></g></g></svg>